# xmcd
#
# Track frame offsets: 
#        150
#        17254
#        29327
#        44199
#        58626
#        70047
#        83874
#        98165
#        113718
#        125015
#        139256
#        150845
#        166288
#
# Disc length: 2376 seconds
#
# Revision: 0
# Processed by: cddbd v1.5.2PL0 Copyright (c) Steve Scherf et al.
# Submitted via: ExactAudioCopy v1.3
#
DISCID=a409460d
DTITLE=Jean Victor Dupuis - I Am Metis
DYEAR=2004
DGENRE=Country
TTITLE0=1885 The Trial Of Luis Riel
TTITLE1=I Am Metis
TTITLE2=Loving His Troubles Away
TTITLE3=Written On The Wind
TTITLE4=He's A Metis
TTITLE5=There Go I
TTITLE6=Lost Highway
TTITLE7=The Hands Of My Lord
TTITLE8=Espanola
TTITLE9=Gramma's Song
TTITLE10=Mic Mac Margie
TTITLE11=Gone Ahead
TTITLE12=My Metis Fiddle
EXTD=
EXTT0=
EXTT1=
EXTT2=
EXTT3=
EXTT4=
EXTT5=
EXTT6=
EXTT7=
EXTT8=
EXTT9=
EXTT10=
EXTT11=
EXTT12=
PLAYORDER=
